<?xml version="1.0" ?><svg viewBox="0 0 64 64" xmlns="http://www.w3.org/2000/svg"><title/><g data-name="Sunny Rain" id="Sunny_Rain"><path d="M38.5488,13.6094a11.7867,11.7867,0,0,0-10.9951,7.4385,1,1,0,0,0,.7725,1.3593,11.5887,11.5887,0,0,1,8.7588,6.6944.9919.9919,0,0,0,1.1074.5673A8.9532,8.9532,0,0,1,46.6475,32.41a1,1,0,0,0,.7412.3281c.02,0,.041-.001.06-.002a1,1,0,0,0,.7569-.4218,11.85,11.85,0,0,0-9.6573-18.7051Z" style="fill:#ffd36b"/><path d="M50.9453,37.67A10.9391,10.9391,0,0,0,38.5684,27.58a13.574,13.574,0,0,0-9.93-7.1475A13.7517,13.7517,0,0,0,13.6494,29.291a7.3315,7.3315,0,0,0-7.1308,7.3213,7.1273,7.1273,0,0,0,.0419.7715A8.2843,8.2843,0,0,0,2,44.7412a8.17,8.17,0,0,0,1.1094,4.1152.9978.9978,0,0,0,.8633.4961H54.2461a1.0023,1.0023,0,0,0,.8174-.4228,7.2314,7.2314,0,0,0,1.3232-4.1885A7.3477,7.3477,0,0,0,50.9453,37.67Z" style="fill:#b2ebf2"/><path d="M9.3379,52.3184c-.3174.3408-3.1025,3.3984-3.1025,5.8476a3.8345,3.8345,0,0,0,7.6689,0c0-2.4492-2.7861-5.5078-3.1035-5.8476A1.03,1.03,0,0,0,9.3379,52.3184Z" style="fill:#9cd5f2"/><path d="M28.4619,52.3184c-.3174.3408-3.1025,3.3984-3.1025,5.8476a3.8345,3.8345,0,0,0,7.6689,0c0-2.4492-2.7861-5.5078-3.1035-5.8476A1.03,1.03,0,0,0,28.4619,52.3184Z" style="fill:#9cd5f2"/><path d="M49.0488,52.3184a1.03,1.03,0,0,0-1.4629,0c-.3173.3408-3.1025,3.3984-3.1025,5.8476a3.834,3.834,0,0,0,7.668,0C52.1514,55.7168,49.3662,52.6592,49.0488,52.3184Z" style="fill:#9cd5f2"/><path d="M38.5488,10.9678a.9994.9994,0,0,0,1-1V3a1,1,0,0,0-2,0V9.9678A1,1,0,0,0,38.5488,10.9678Z" style="fill:#776d8a"/><path d="M26.8926,15.21a1,1,0,1,0,1.414-1.4141l-3.2841-3.2852a1,1,0,1,0-1.4141,1.4141Z" style="fill:#776d8a"/><path d="M61,24.4512H54.0322a1,1,0,0,0,0,2H61a1,1,0,0,0,0-2Z" style="fill:#776d8a"/><path d="M49.4971,15.5029a.9967.9967,0,0,0,.707-.2929l3.2852-3.2852a1,1,0,1,0-1.4141-1.4141L48.79,13.7959a1,1,0,0,0,.7071,1.707Z" style="fill:#776d8a"/><path d="M50.9453,37.67a10.8972,10.8972,0,0,0-2.3163-6.006A11.8407,11.8407,0,1,0,27.8659,20.3456,13.7532,13.7532,0,0,0,13.6494,29.291a7.3315,7.3315,0,0,0-7.1308,7.3213,7.1273,7.1273,0,0,0,.0419.7715A8.2843,8.2843,0,0,0,2,44.7412a8.17,8.17,0,0,0,1.1094,4.1152.9978.9978,0,0,0,.8633.4961H54.2461a1.0023,1.0023,0,0,0,.8174-.4228,7.2314,7.2314,0,0,0,1.3232-4.1885A7.3477,7.3477,0,0,0,50.9453,37.67Zm-12.3965-22.06a9.8472,9.8472,0,0,1,8.6485,14.5458c-.0389-.0337-.0813-.0622-.12-.0953q-.3889-.3277-.8054-.6158c-.1147-.08-.232-.1538-.3495-.229q-.3321-.2123-.6781-.3994c-.1191-.0645-.2364-.1313-.3578-.1914a10.9618,10.9618,0,0,0-1.0368-.4532c-.061-.0226-.1242-.0388-.1856-.06q-.4729-.1667-.9607-.2888c-.1079-.0271-.2162-.0506-.325-.0744q-.4743-.1044-.958-.1662c-.0769-.01-.1524-.0232-.23-.0314a10.8867,10.8867,0,0,0-1.1542-.0676c-.0239,0-.0486.0047-.0726.0048a11.2256,11.2256,0,0,0-1.3951.0929,13.7509,13.7509,0,0,0-.7843-1.31c-.0951-.1413-.2029-.271-.3028-.408-.1975-.2712-.3964-.5408-.6122-.7953-.129-.1522-.2681-.2934-.4034-.4394-.2058-.2221-.4128-.4418-.6322-.6491-.1525-.1441-.3116-.2791-.4705-.4159-.2206-.19-.444-.3745-.6761-.55-.1705-.1286-.3442-.2512-.5206-.3717-.2383-.1628-.4814-.3169-.73-.4643-.1835-.1087-.3674-.2151-.5562-.3152-.2589-.1374-.5239-.2622-.7921-.3829-.19-.0857-.3792-.173-.574-.25-.2873-.1137-.5819-.21-.8781-.3041-.1865-.0593-.37-.1253-.5594-.1767-.0511-.0139-.0995-.0343-.1508-.0476A9.7894,9.7894,0,0,1,38.5488,15.6094ZM53.6982,47.3525H4.5771A6.1825,6.1825,0,0,1,4,44.7412a6.27,6.27,0,0,1,4.0244-5.8193.9992.9992,0,0,0,.6211-1.1436,5.633,5.633,0,0,1-.1269-1.166,5.33,5.33,0,0,1,5.3232-5.3242,4.05,4.05,0,0,1,.4209.0224,1,1,0,0,0,1.0625-.7119,11.7235,11.7235,0,0,1,13.001-8.1914,11.5887,11.5887,0,0,1,8.7588,6.6944.9919.9919,0,0,0,1.1074.5673,9.2837,9.2837,0,0,1,2.3793-.1667,8.9335,8.9335,0,0,1,8.399,8.99,1,1,0,0,0,.86.99,5.3263,5.3263,0,0,1,4.5556,5.2588A5.2349,5.2349,0,0,1,53.6982,47.3525Z" style="fill:#776d8a"/><path d="M9.3379,52.3184c-.3174.3408-3.1025,3.3984-3.1025,5.8476a3.8345,3.8345,0,0,0,7.6689,0c0-2.4492-2.7861-5.5078-3.1035-5.8476A1.03,1.03,0,0,0,9.3379,52.3184ZM10.0693,60a1.8354,1.8354,0,0,1-1.8339-1.834c0-.9746.9472-2.4941,1.8349-3.624.8877,1.1279,1.834,2.6455,1.834,3.624A1.8363,1.8363,0,0,1,10.0693,60Z" style="fill:#776d8a"/><path d="M28.4619,52.3184c-.3174.3408-3.1025,3.3984-3.1025,5.8476a3.8345,3.8345,0,0,0,7.6689,0c0-2.4492-2.7861-5.5078-3.1035-5.8476A1.03,1.03,0,0,0,28.4619,52.3184ZM29.1934,60a1.8355,1.8355,0,0,1-1.834-1.834c0-.9746.9472-2.4941,1.8349-3.624.8877,1.1279,1.834,2.6455,1.834,3.624A1.8363,1.8363,0,0,1,29.1934,60Z" style="fill:#776d8a"/><path d="M47.5859,52.3184c-.3173.3408-3.1025,3.3984-3.1025,5.8476a3.834,3.834,0,0,0,7.668,0c0-2.4492-2.7852-5.5068-3.1026-5.8476A1.03,1.03,0,0,0,47.5859,52.3184ZM48.3174,60a1.8355,1.8355,0,0,1-1.834-1.834c0-.9746.9463-2.4931,1.834-3.623.8877,1.13,1.834,2.6484,1.834,3.623A1.8355,1.8355,0,0,1,48.3174,60Z" style="fill:#776d8a"/></g></svg>