<?xml version="1.0" encoding="utf-8"?>
<!-- Uploaded to: SVG Repo, www.svgrepo.com, Generator: SVG Repo Mixer Tools -->
<svg width="800px" height="800px" viewBox="0 0 1024 1024" class="icon"  version="1.1" xmlns="http://www.w3.org/2000/svg"><path d="M579.2 164.8c12.8 17.6 12.8 30.4 3.2 100.8-4.8 38.4-6.4 62.4-4.8 88 1.6 24 4.8 44.8 12.8 62.4 12.8 30.4 30.4 49.6 76.8 84.8 1.6 1.6 1.6 1.6 3.2 1.6 65.6 51.2 91.2 81.6 99.2 142.4 14.4 105.6-41.6 196.8-121.6 252.8-62.4 43.2-168 48-224-1.6-76.8-65.6-158.4-241.6-166.4-403.2-8-176 78.4-377.6 163.2-400 62.4-14.4 118.4 17.6 158.4 72z m-25.6 19.2c-33.6-44.8-78.4-70.4-126.4-57.6-67.2 17.6-147.2 204.8-140.8 368 6.4 153.6 83.2 320 153.6 380.8 44.8 38.4 134.4 35.2 185.6-1.6 72-49.6 120-129.6 108.8-222.4-6.4-49.6-27.2-75.2-86.4-121.6-1.6-1.6-1.6-1.6-3.2-1.6-51.2-40-72-60.8-86.4-99.2-8-22.4-12.8-46.4-14.4-73.6-1.6-27.2 0-52.8 6.4-92.8 8-56 9.6-72 3.2-78.4z" fill="#050D42" /><path d="M582.4 419.2c1.6 4.8 3.2 9.6 6.4 14.4-1.6-4.8 57.6 92.8 81.6 145.6 19.2 43.2 12.8 73.6-14.4 86.4-20.8 9.6-49.6 9.6-81.6 4.8-73.6-12.8-112-65.6-118.4-224-6.4-155.2 27.2-219.2 73.6-203.2 16 4.8 24 25.6 35.2 96 0 1.6 3.2 16 3.2 20.8 6.4 30.4 9.6 48 14.4 59.2z" fill="#2F4BFF" /><path d="M582.4 419.2c1.6 4.8 3.2 9.6 6.4 14.4-1.6-4.8 57.6 92.8 81.6 145.6 38.4 84.8-28.8 168-126.4 187.2-96 19.2-185.6-91.2-193.6-264-3.2-84.8 24-153.6 73.6-206.4 36.8-38.4 84.8-64 104-57.6 16 4.8 24 30.4 35.2 99.2 0 1.6 3.2 16 3.2 20.8 8 32 11.2 49.6 16 60.8z m-14.4 6.4c-4.8-12.8-9.6-30.4-14.4-64 0-4.8-3.2-19.2-3.2-20.8-9.6-57.6-17.6-84.8-25.6-88-3.2-1.6-16 1.6-32 9.6-19.2 9.6-38.4 25.6-56 43.2-46.4 49.6-73.6 115.2-70.4 193.6 6.4 163.2 89.6 265.6 174.4 248 88-17.6 147.2-91.2 113.6-164.8-24-51.2-83.2-148.8-81.6-145.6-1.6-1.6-3.2-6.4-4.8-11.2z" fill="#050D42" /></svg>